<svg width="119" height="123" fill="none" xmlns="http://www.w3.org/2000/svg"><path fill-rule="evenodd" clip-rule="evenodd" d="M7.921 31.424c.216-.264 11.682-7.46 25.475-15.952C54.216 2.615 58.606 0 59.35 0c.768-.024 3.838 1.895 24.707 15.352 13.097 8.444 24.06 15.592 24.371 15.88l.528.48v42.961l2.399 2.423c1.295 1.343 2.495 2.734 2.639 3.094.551 1.463.119 3.622-.888 4.534l-.504.431.672 1.608.672 1.583 1.295.264c1.655.335 2.447.887 3.07 2.135.432.911.48 1.463.48 5.06 0 3.599-.048 4.15-.504 5.062-.575 1.224-1.703 1.991-3.238 2.207-1.079.168-1.103.192-1.751 1.727l-.648 1.559.696.864c.743.959 1.031 2.327.767 3.718-.119.72-.719 1.463-2.95 3.766-1.655 1.679-3.214 3.046-3.766 3.31-1.631.744-3.238.528-4.438-.623l-.599-.576-1.751.647c-1.68.624-1.727.672-1.727 1.464 0 1.079-.792 2.662-1.632 3.262-.575.432-1.103.48-5.373.552-3.91.072-4.845 0-5.445-.288-1.127-.6-1.943-1.847-2.11-3.238-.073-.672-.265-1.224-.409-1.224-.144 0-.84-.264-1.535-.599l-1.247-.576-1.056.719c-1.415 1.008-2.878 1.176-4.293.48-1.584-.767-6.285-5.661-6.669-6.932l-.288-1.008H1.757l-.48-.623c-.648-.816-.648-1.535 0-2.351.48-.6.551-.624 3.358-.624h2.854V90.757c0-11.518-.001-13.256.753-13.693.134-.078.292-.114.478-.158l.113-.026c.863-.216 1.895.216 2.23.96.192.431.264 4.7.264 14.608v14.032h8.156V48.215l-.695-.48c-1.2-.863-1.536-2.183-1.44-5.733.096-3.406.264-3.838 1.751-4.941.648-.504.696-.504 38.791-.576h.021c37.18-.048 38.164-.048 39.171.408 1.68.743 2.04 1.703 2.04 5.54 0 3.527-.24 4.439-1.416 5.302l-.743.552v20.941l.623.576c.792.72 1.296 1.87 1.296 2.974 0 .456.12.84.263.84.144 0 .912.287 1.679.623l1.392.624.911-.72c.504-.407 1.128-.767 1.392-.815.478-.072.479-.287.551-19.813v-.097l.048-19.813-22.812-14.705C69.761 10.794 59.398 4.198 59.278 4.246c-.12.024-10.962 6.668-24.083 14.728L11.328 33.678v18.519c0 13.24-.072 18.686-.264 19.118-.336.743-1.368 1.175-2.231.96a5.97 5.97 0 0 0-.172-.038 1.52 1.52 0 0 1-.39-.116c-.785-.405-.784-2.331-.782-17.642v-2.954c0-18.302.024-19.621.432-20.101Zm87.362 13.169v-4.318h-74.12v4.318l17.414.048 17.415.072.456.575c.623.768.6 1.967-.096 2.615l-.552.528H23.321v58.049h7.916V84.124l.816-.816.815-.815H44.43V70.282c-.001-8.861-.001-10.373.745-11.01.154-.132.339-.226.562-.34.043-.02.087-.043.132-.067 1.056-.551 26.075-.527 27.106 0 1.367.72 1.44 1.08 1.44 8.756v7.004l.719-.624c1.391-1.175 3.502-1.103 4.917.12l.84.744 1.679-.696c1.56-.623 1.68-.72 1.68-1.391 0-1.08.959-2.783 1.894-3.406.744-.504 1.104-.552 3.886-.552h3.094V48.431H62.493l-.504-.552a1.898 1.898 0 0 1 .072-2.686l.575-.6h32.647ZM54.385 69.588l-.072-3.622-.072-3.622h-6.213v20.149h20.869v-.72c0-.96.528-2.159 1.176-2.734.503-.456.503-.576.503-8.588v-8.107H64.34v7.412l-.624.48c-.576.455-.96.503-4.318.503-3.526 0-3.694-.024-4.342-.576l-.671-.575Zm6.117-2.687v-4.558h-2.4v4.558h2.4Zm34.853 9.187c-.168-.216-.312-1.08-.312-1.919v-1.511h-6.956v1.535c0 1.967-.312 2.327-2.758 3.119-1.056.335-2.4.887-2.975 1.223-1.559.888-2.447.791-3.766-.408l-1.08-1.007-2.374 2.374-2.399 2.375 1.08 1.104c1.319 1.343 1.367 1.847.264 4.03-.456.911-1.008 2.23-1.2 2.974-.6 2.063-.791 2.207-2.83 2.35l-1.752.12v6.718l1.68.12c.935.072 1.799.192 1.967.312.144.096.503.911.815 1.799.288.887.888 2.327 1.32 3.214 1.079 2.159 1.055 2.735-.192 4.126l-.984 1.151 2.303 2.279 2.279 2.303 1.151-.983c1.343-1.2 1.991-1.272 3.766-.36.696.336 2.111.935 3.142 1.295 1.056.384 2.015.792 2.16.936.143.144.311 1.031.383 1.991l.12 1.727h6.717l.072-1.44c.096-2.063.335-2.422 2.182-3.022.864-.288 2.303-.888 3.191-1.319 2.207-1.104 2.83-1.08 4.245.264l1.128 1.055 2.375-2.375 2.374-2.375-1.127-1.199c-.696-.743-1.127-1.415-1.127-1.775 0-.312.383-1.295.839-2.183.456-.887 1.008-2.231 1.223-2.974.6-2.087 1.032-2.447 3.023-2.447h1.655l-.072-3.43-.072-3.406-1.583-.072c-1.895-.072-2.327-.432-2.951-2.447a25.37 25.37 0 0 0-1.247-2.95c-.456-.912-.815-1.92-.815-2.231 0-.384.407-1.032 1.127-1.8l1.127-1.199-2.374-2.374L105.742 77l-1.128 1.055c-1.391 1.295-2.062 1.367-3.885.432a41.55 41.55 0 0 0-3.167-1.32c-1.055-.36-2.063-.863-2.207-1.079ZM41.192 93.575l-.072-3.622-.096-3.622h-5.949v20.149h22.308V86.331h-5.949l-.095 3.622-.072 3.622-.672.576c-.648.552-.816.575-4.366.575s-3.718-.023-4.366-.575l-.671-.576Zm6.356-2.687V86.33H44.91v4.558h2.64Zm21.11-2.398c.503 0 .671-.192.983-1.08l.408-1.08H61.22v20.15h9.308l-.647-1.679c-.6-1.607-.648-1.679-1.415-1.679-1.752 0-3.527-1.367-3.91-3.022-.288-1.296-.264-7.46.047-8.564.48-1.799 2.16-3.046 4.054-3.046Zm12.232 8.97c-.911-5.853 3.166-11.442 8.995-12.33 3.934-.6 8.06 1.056 10.339 4.15 4.893 6.62 1.247 15.76-6.836 17.223-5.877 1.032-11.586-3.094-12.498-9.043Zm15.592 3.262c3.406-3.406 2.543-8.947-1.727-11.01-3.07-1.463-5.901-1.007-8.156 1.343-4.222 4.366-1.127 11.658 4.966 11.682 2.063 0 3.478-.575 4.917-2.015ZM54.889 18.47c-.792.624-.888 2.111-.144 2.855.432.432.791.48 4.51.48 3.166 0 4.125-.072 4.533-.36 1.056-.744.888-2.663-.312-3.215-.36-.167-2.063-.263-4.27-.263-3.358 0-3.742.048-4.317.503Zm-.144 10.051c-.744-.744-.648-2.23.144-2.854.575-.456.96-.504 4.317-.504 2.207 0 3.91.096 4.27.264 1.2.552 1.368 2.47.312 3.214-.408.288-1.367.36-4.534.36-3.718 0-4.077-.048-4.51-.48Z" fill="url(#a)"/><defs><linearGradient id="a" x1="53.001" y1="0" x2="51.947" y2="112.99" gradientUnits="userSpaceOnUse"><stop stop-color="#048CC9"/><stop offset="1" stop-color="#14518A"/></linearGradient></defs></svg>