<svg width="119" height="119" fill="none" xmlns="http://www.w3.org/2000/svg"><path fill-rule="evenodd" clip-rule="evenodd" d="M37.59 1.005c-.523.238-1.284.809-1.712 1.237-1.404 1.475-1.5 1.999-1.5 8.066v5.473h-2.545c-10.326 0-20.343 5.4-26.22 14.133C3.161 33.53 1.21 38.337.496 42.548c-.5 2.808-.5 8.447-.024 11.207.738 4.164 2.689 9.017 5.116 12.586 4.045 5.973 10.826 10.97 17.321 12.778l1.951.547v3.973c0 2.19.12 4.26.238 4.616.214.547.143.738-.69 1.642-.523.57-1.07 1.427-1.213 1.951-.19.619-.238 3.83-.19 10.421l.07 9.518.69 1.427c.905 1.833 2.713 3.641 4.545 4.545 1.333.642 1.618.69 4.164.69 2.546 0 2.832-.048 4.164-.69 1.832-.904 3.64-2.712 4.545-4.545l.69-1.427.071-9.518c.048-6.59 0-9.802-.19-10.421-.143-.523-.69-1.38-1.214-1.951-.833-.904-.904-1.095-.69-1.642.12-.357.238-2.427.238-4.616v-3.973l1.88-.524c2.498-.69 6.02-2.355 8.565-4.045 2.19-1.451 5.877-4.877 7.329-6.78.5-.62.952-1.143 1.047-1.143.071 0 .404.476.714 1.047l.547 1.047-.857 2.118-.833 2.094-2.546.832-2.522.833v14.537l2.523.834 2.545.808.833 2.094.857 2.094-1.261 2.403-1.285 2.38 5.14 5.115 5.115 5.14 2.38-1.261 2.378-1.285 2.118.832 2.094.833.833 2.546.832 2.546h14.538l.833-2.522.809-2.546 2.094-.833 2.117-.856 2.38 1.261 2.379 1.285 5.139-5.14 5.116-5.115-1.261-2.38-1.285-2.38.833-2.117.833-2.094 2.546-.832 2.545-.833V75.122l-2.522-.834-2.546-.808-.832-2.094-.857-2.094 1.261-2.403 1.285-2.38-5.116-5.115-5.139-5.14-2.356 1.285L98.93 56.8l-1.999-.785c-1.094-.428-2.14-.952-2.284-1.166-.785-1-.785-1 9.446-1 8.669 0 10.35 0 11.506-.779.278-.187.525-.42.832-.71h.001l.01-.01c.428-.427.999-1.189 1.237-1.712.429-.904.452-2.023.452-23.437s-.023-22.532-.452-23.436c-.238-.524-.809-1.285-1.237-1.713-.114-.108-.206-.208-.292-.3-.077-.082-.148-.159-.224-.23-1.04-.977-2.998-.976-31.75-.97h-7.969c-36.19 0-37.712.025-38.616.453Zm75.402 3.688c.547.214.88.57 1.071 1.094.38 1.119.38 41.71 0 42.828-.03.082-.051.159-.071.231-.027.1-.053.192-.094.276-.452.926-2.803.926-31.073.922h-.04a43608.752 43608.752 0 0 0-13.06 0h-.04c-28.27.004-30.621.004-31.073-.922-.041-.084-.066-.176-.094-.276a3.13 3.13 0 0 0-.07-.23c-.381-1.119-.381-41.71 0-42.829a3.56 3.56 0 0 0 .066-.225c.026-.098.05-.189.09-.271.438-.914 2.78-.915 31.031-.928l6.572-.003c30.242 0 36.119.047 36.785.333ZM33.689 19.825h.69v3.569H31.88c-4.259 0-8.446 1.19-12.3 3.474-2.713 1.594-6.782 5.663-8.376 8.375-2.427 4.07-3.474 7.995-3.474 12.896 0 6.782 2.165 12.23 6.757 17.06 3.236 3.403 6.615 5.473 11.255 6.9 1.974.595 2.379.643 6.733.643 4.402 0 4.759-.024 6.758-.643 7.566-2.355 13.395-7.566 16.203-14.49.428-1.094.88-2.38.952-2.879l.166-.88h1.856c.174 0 .333-.002.478-.004.644-.007 1.012-.012 1.163.167.201.237.023.796-.39 2.095-.07.217-.146.455-.228.716-2.26 7.186-7.614 13.372-14.466 16.75-4.164 2.047-7.804 2.903-12.492 2.903-12.991 0-24.079-8.613-27.529-21.366-.951-3.474-.951-10.47 0-13.943 3.189-11.802 13.23-20.32 25.15-21.319 1.237-.095 2.403-.166 2.57-.119.19.048.642.095 1.023.095Zm0 7.614h.69v11.615c0 9.502 0 11.29.857 12.435.2.266.444.496.746.78l.086.082c1.523 1.451 1.856 1.499 9.494 1.499h6.9l-.548 1.499c-2.331 6.4-8.018 11.444-14.752 13.015-9.445 2.236-19.32-2.594-23.484-11.469-1.927-4.116-2.45-9.16-1.427-13.514.619-2.57 2.474-6.33 4.092-8.328 3.522-4.283 8.78-7.09 14.229-7.614.975-.095 1.927-.142 2.094-.095.19.048.642.095 1.023.095Zm43.518 26.72c0 .619-.619 1.047-2.57 1.832l-1.975.81-2.38-1.262-2.402-1.285-2.38 2.356c-1.332 1.309-2.331 2.189-2.26 1.975.056-.17.247-.92.477-1.827l.19-.743.523-2.165h6.4c5.092 0 6.377.071 6.377.31Zm13.467 1.975.69 2.26 2.141.714c1.166.405 2.832 1.095 3.688 1.523l1.547.833 2.022-1.07 2.023-1.048 3.021 2.998 3.022 3.022-1.047 2.046-1.07 2.046.809 1.523c.452.857 1.142 2.499 1.546 3.664l.69 2.118 2.284.714 2.284.737v8.376l-2.284.737-2.284.714-.69 2.118c-.404 1.165-1.094 2.807-1.523 3.64l-.809 1.499 1.047 2.094 1.047 2.07-3.022 2.998-3.021 2.998-2.023-1.047-2.022-1.071-1.666.881c-.904.475-2.57 1.165-3.664 1.522l-1.999.643-.713 2.284-.738 2.284h-8.399l-.69-2.284-.69-2.26-2.141-.714c-1.166-.405-2.832-1.095-3.688-1.523l-1.547-.833-2.022 1.071-2.023 1.047-3.022-2.998-3.021-3.022 1.047-2.046 1.07-2.046-.809-1.523c-.452-.857-1.142-2.498-1.546-3.664l-.69-2.118-2.285-.714-2.284-.737v-8.376l2.285-.737 2.284-.714.69-2.094c.404-1.166 1.094-2.831 1.522-3.688l.833-1.546-1.07-2.023-1.047-2.022 2.998-3.022 3.021-3.022 2.047 1.047 2.046 1.07 1.523-.808c.856-.452 2.498-1.142 3.688-1.547l2.141-.713.69-2.26.69-2.285h8.423l.69 2.284ZM36.282 83.211c0 3.26-.262 4.116-1.332 4.568-.952.405-3.76.429-4.854.072-1.142-.405-1.428-1.333-1.428-4.616v-2.736h7.614v2.712Zm.595 9.041c1.285.548 1.356 1.119 1.261 10.017-.071 6.924-.119 7.971-.5 8.804-1.665 3.736-6.4 4.64-9.136 1.761-1.57-1.666-1.594-1.88-1.69-10.565-.095-8.827-.023-9.47 1.214-9.993 1.094-.476 7.733-.476 8.851-.024ZM54.175 8.666c-1.713.667-3.426 2.403-4.093 4.188-.404 1.094-.5 1.76-.428 3.283.095 2.213.643 3.546 2.046 4.997l.928.952-2.427 6.305-2.45 6.305-1.047.143c-1.357.214-2.237.666-3.212 1.69-1.047 1.094-1.5 2.307-1.5 4.044.025 3.379 2.309 5.663 5.711 5.663s5.687-2.284 5.71-5.663c0-1.642-.333-2.665-1.237-3.735l-.595-.714 2.427-6.305 2.427-6.306 1.547-.142a7.718 7.718 0 0 0 2.879-.786l1.285-.666 4.282 3.117 4.283 3.117-.095 2.19c-.143 2.854.38 4.425 2.07 6.138 1.618 1.594 3.307 2.213 5.83 2.094 4.473-.19 7.256-3.189 7.256-7.78v-1.857l3.974-2.308c2.522-1.475 4.093-2.26 4.283-2.117 3.33 2.379 4.473 2.784 7.519 2.64 1.832-.07 2.45-.213 3.64-.784 1.808-.88 3.617-2.713 4.521-4.521.642-1.333.69-1.618.69-4.164 0-2.546-.048-2.831-.69-4.164-.904-1.832-2.713-3.64-4.545-4.544-1.332-.643-1.618-.69-4.164-.69-2.546 0-2.831.047-4.164.69-1.832.904-3.64 2.712-4.544 4.544-.642 1.333-.69 1.618-.714 4.354l-.024 2.927-3.878 2.284-3.902 2.284-.738-.428c-2.165-1.309-2.546-1.428-4.877-1.428-2.023 0-2.404.072-3.593.667l-1.333.69-4.282-3.117-4.283-3.117.095-2.19c.143-2.855-.38-4.425-2.07-6.138-2.118-2.094-5.591-2.76-8.518-1.642Zm4.901 4.021c3.093 1.88 1.761 6.662-1.856 6.662-2.022 0-3.569-1.546-3.569-3.569 0-2.022 1.547-3.569 3.57-3.569.642 0 1.38.19 1.855.476Zm44.018-.095c3.64 1.5 4.545 6.353 1.689 9.065-3.497 3.308-9.255.857-9.255-3.973 0-2.141 1.213-4.021 3.212-5.068.928-.5 3.212-.5 4.354-.024Zm-23.08 15.323c3.094 1.88 1.761 6.662-1.855 6.662-2.023 0-3.57-1.546-3.57-3.569 0-2.022 1.547-3.569 3.57-3.569.642 0 1.38.19 1.855.476Zm-31.12 11.421c.261.262.476.785.476 1.19 0 .404-.215.928-.476 1.19-.262.261-.785.475-1.19.475-.404 0-.928-.214-1.19-.476-.261-.261-.475-.785-.475-1.19 0-.404.214-.927.475-1.189.262-.262.786-.476 1.19-.476.405 0 .928.214 1.19.476Zm42.59-.714v-3.807h19.035v3.807H91.483Zm0 5.71v1.904h3.807V42.43h-3.807v1.904Zm7.614 1.904V42.43h3.807v3.807h-3.807Zm7.614-1.903v1.903h3.807V42.43h-3.807v1.904ZM17.295 56.3c-1.166-2.237-1.951-5.044-1.951-6.9v-1.26h3.973l.12 1.475c.309 3.712 2.498 7.257 5.948 9.565 1.475 1.023 4.52 2.046 6.043 2.046h1.047v4.045h-1.26c-1.857 0-4.664-.785-6.9-1.951-2.713-1.404-5.616-4.307-7.02-7.02Zm63.362 5.663c-7.376 1.808-13.562 8.042-15.347 15.442-.666 2.783-.666 7.209 0 9.993 1.88 7.804 8.304 14.014 16.227 15.608 2.38.476 7.638.333 9.827-.262 2.332-.618 6.02-2.593 7.947-4.211 3.307-2.784 5.925-7.02 6.924-11.135.666-2.784.666-7.21 0-9.993-1.785-7.472-7.995-13.682-15.466-15.466-2.736-.643-7.4-.643-10.112.024Zm7.542 3.664c3.236.309 7.21 2.38 9.756 5.068 1.903 2.022 3.045 3.878 3.926 6.353.618 1.76.666 2.165.666 5.353 0 3.26-.048 3.57-.738 5.496-.904 2.57-2.498 4.973-4.497 6.829-9.065 8.494-23.46 4.806-27.671-7.067-.595-1.641-.643-2.117-.643-5.258 0-3.165.048-3.593.666-5.353a17.465 17.465 0 0 1 10.493-10.636c1.785-.666 4.759-1.142 6.091-1 .334.048 1.214.143 1.951.215ZM87.081 91.61c3.878-.404 7.495-4.021 7.9-7.9l.142-1.308h3.974v1.142c0 2.594-1.642 6.115-3.855 8.328-2.213 2.213-5.734 3.854-8.328 3.854h-1.142v-3.973l1.31-.143Z" fill="url(#a)"/><defs><linearGradient id="a" x1="85.59" y1="1" x2="85.59" y2="118" gradientUnits="userSpaceOnUse"><stop stop-color="#048CC9"/><stop offset="1" stop-color="#14518A"/></linearGradient></defs></svg>